# xmcd
#
# Track frame offsets:
#	150
#	21379
#	36223
#	56010
#	71922
#	89971
#	107707
#	124573
#	140912
#	157770
#	178276
#	195900
#	210787
#	232040
#	249492
#	263202
#	281524
#	298851
#	313574
#	331653
#
# Disc length: 4668
#
# Revision: 4
# Processed by: cddbd v1.5.1PL0 Copyright (c) Steve Scherf et al.
# Submitted via: audiograbber 1.83.01
# Normalized: r3:DSETVAR1
#
DISCID=2e123a14
DTITLE=Various Artist - This Love - disc 1
DYEAR=2005
DGENRE=Ballad
TTITLE0=Il Divo - Unbreak My Heart (Regresa A Mi)
TTITLE1=Steve Brookstein - Against All Odds
TTITLE2=George Michael - Amazing
TTITLE3=Will Young - Leave Right Now
TTITLE4=Dido - White Flag
TTITLE5=Anastacia - Left Outside Alone
TTITLE6=Brian McFadden - Real To Me
TTITLE7=Rooster - Staring At The Sun
TTITLE8=Avril Lavigne - I'm With You
TTITLE9=Westlife - Unbreakable
TTITLE10=Bangles - Eternal Flame
TTITLE11=Nilsson - Without You
TTITLE12=Eva Cassidy - Fields Of Gold
TTITLE13=Craig David - 7 Days
TTITLE14=TLC - No Scrubs
TTITLE15=Lemar - Another Day
TTITLE16=All Saints - Never Ever
TTITLE17=Elvis Presley - It's Now Or Never
TTITLE18=Christina Aguilera - Beautiful
TTITLE19=Toni Braxton - Unbreak my Heart
EXTD=
EXTT0=
EXTT1=
EXTT2=
EXTT3=
EXTT4=
EXTT5=
EXTT6=
EXTT7=
EXTT8=
EXTT9=
EXTT10=
EXTT11=
EXTT12=
EXTT13=
EXTT14=
EXTT15=
EXTT16=
EXTT17=
EXTT18=
EXTT19=
PLAYORDER=
